<svg width="52" height="41" viewBox="0 0 52 41" fill="none" xmlns="http://www.w3.org/2000/svg">
<path d="M51.2271 12.4936C42.8266 11.6885 34.426 10.8834 28.5976 10.3732C22.7692 9.86303 19.8589 9.34609 16.9486 8.82915C14.2856 8.37849 11.5647 7.64942 9.03317 6.70822C7.12003 5.93272 5.2069 5.15722 3.48317 4.16958C5.53731 5.90295 7.78086 7.42418 10.2138 8.73329C13.6941 10.5859 17.4296 11.9811 21.2965 12.8858C25.287 13.8237 29.2196 14.4831 33.3416 14.9304L40.0938 15.951C38.7757 16.9122 37.7959 18.0955 36.9069 19.4345C36.1415 20.8067 35.8709 22.3115 35.9712 23.9157C36.0794 24.9962 36.4349 26.1429 37.1035 27.1107C38.2226 24.9132 39.5561 22.9046 40.9805 21.0518C42.5614 19.1095 44.3239 17.4787 46.3338 15.9143C47.8741 14.6183 49.5052 13.478 51.2271 12.4936Z" fill="#F6F9FD"/>
<path d="M0.000280558 28.0831C8.13112 28.8623 16.262 29.6415 21.9032 30.1354C27.5445 30.6292 30.3614 31.1295 33.1783 31.6299C35.7557 32.066 38.3893 32.7717 40.8396 33.6827C42.6913 34.4333 44.543 35.1839 46.2114 36.1398C44.2232 34.4621 42.0517 32.9897 39.6968 31.7226C36.3282 29.9295 32.7127 28.5791 28.97 27.7034C25.1075 26.7957 21.3012 26.1574 17.3115 25.7245L10.7762 24.7367C12.0519 23.8063 13.0003 22.661 13.8608 21.365C14.6016 20.0368 14.8635 18.5804 14.7663 17.0277C14.6617 15.9819 14.3176 14.8719 13.6704 13.9352C12.5873 16.0622 11.2966 18.0063 9.91795 19.7996C8.3878 21.6796 6.68185 23.258 4.73648 24.7722C3.24565 26.0266 1.66692 27.1302 0.000280558 28.0831Z" fill="#2A5FE7"/>
</svg>
